<?xml version="1.0" standalone="no"?>
<!DOCTYPE svg PUBLIC "-//W3C//DTD SVG 20010904//EN"
 "http://www.w3.org/TR/2001/REC-SVG-20010904/DTD/svg10.dtd">
<svg version="1.0" xmlns="http://www.w3.org/2000/svg"
 width="469.000000pt" height="469.000000pt" viewBox="0 0 469.000000 469.000000"
 preserveAspectRatio="xMidYMid meet">
<metadata>
Created by potrace 1.14, written by Peter Selinger 2001-2017
</metadata>
<g transform="translate(0.000000,469.000000) scale(0.100000,-0.100000)"
fill="#000000" stroke="none">
<path d="M2655 3783 c-69 -8 -208 -69 -228 -100 -10 -17 -79 -17 -95 -1 -8 8
-48 13 -116 13 -84 0 -108 4 -123 18 -11 9 -25 17 -31 17 -7 0 -20 4 -30 9
-50 26 -115 36 -237 35 -105 0 -138 -4 -170 -19 -22 -10 -42 -19 -45 -20 -3 0
-36 -16 -75 -35 -38 -19 -73 -34 -77 -35 -11 0 -86 -83 -120 -134 -18 -25 -35
-48 -39 -51 -4 -3 -11 -18 -14 -33 -4 -15 -11 -27 -15 -27 -5 0 -11 -13 -15
-30 -4 -16 -10 -30 -14 -30 -4 0 -8 -10 -8 -22 -2 -31 -22 -120 -28 -126 -3
-3 -17 1 -31 9 -40 21 -229 16 -266 -7 -7 -5 -19 -9 -27 -11 -8 -1 -18 -8 -22
-15 -5 -7 -9 -8 -9 -3 0 6 -3 6 -8 -1 -4 -5 -25 -23 -47 -39 -51 -36 -95 -84
-95 -102 0 -7 -7 -16 -15 -19 -8 -4 -15 -12 -15 -19 0 -8 -5 -26 -12 -42 -7
-15 -13 -32 -13 -38 -1 -5 -6 -23 -10 -40 -5 -16 -9 -51 -9 -77 -1 -26 -4 -48
-8 -48 -4 -1 -27 -8 -50 -16 -24 -9 -47 -17 -53 -18 -48 -10 -195 -138 -195
-170 0 -8 -6 -19 -13 -23 -14 -9 -45 -98 -55 -163 -16 -95 15 -218 74 -296 19
-24 34 -46 34 -48 0 -9 59 -66 69 -66 6 0 11 -4 11 -10 0 -5 5 -10 12 -10 6 0
19 -6 27 -14 31 -27 143 -57 205 -56 83 2 115 5 123 13 3 4 17 7 30 7 12 0 23
5 23 10 0 6 7 10 15 10 9 0 21 4 28 10 7 5 26 21 43 34 l30 25 80 -40 c43 -21
84 -39 90 -39 6 0 28 -13 50 -30 21 -16 44 -30 50 -30 6 0 36 -14 67 -30 31
-17 63 -30 72 -30 8 0 15 -4 15 -10 0 -5 12 -10 26 -10 14 0 35 -5 46 -11 12
-6 71 -13 131 -15 98 -2 137 1 212 19 28 7 108 39 120 48 6 4 30 9 55 12 25 3
68 10 95 16 28 6 59 12 70 14 37 6 155 66 155 78 0 7 3 9 7 6 8 -8 61 52 89
101 l21 37 79 1 c43 0 86 3 94 6 48 16 80 37 120 78 40 41 49 46 85 44 22 -2
42 -3 45 -4 3 -1 13 -1 24 0 10 1 22 -2 25 -7 6 -9 86 -48 145 -72 36 -15 249
-15 276 -1 11 6 20 8 20 4 0 -3 20 6 45 20 25 15 45 24 45 21 0 -8 92 66 107
86 9 12 30 16 82 17 39 0 75 3 79 6 5 3 27 -10 48 -30 21 -19 49 -37 62 -40
12 -4 22 -10 22 -15 0 -5 6 -9 13 -9 6 0 24 -7 39 -14 56 -29 239 -38 264 -13
4 4 15 7 25 7 18 0 56 19 127 62 17 11 32 17 32 14 0 -3 14 8 30 26 17 17 30
36 30 42 0 6 9 17 20 24 11 7 20 19 20 27 0 8 5 15 10 15 6 0 10 7 10 15 0 8
4 15 9 15 5 0 13 14 16 32 4 18 11 39 16 48 4 8 12 40 17 70 16 107 -29 274
-93 342 -14 15 -25 31 -25 36 0 9 -56 62 -65 62 -3 0 -13 7 -24 16 -11 10 -50
30 -88 47 -53 23 -86 30 -151 33 -46 1 -94 -1 -108 -6 -23 -9 -24 -9 -21 43 2
28 0 70 -5 92 -5 22 -10 47 -12 57 -1 9 -7 22 -13 30 -6 7 -16 31 -22 54 -22
83 -198 198 -318 209 -72 6 -163 -10 -210 -36 -26 -15 -44 -18 -67 -13 -17 4
-34 7 -38 6 -5 -1 -8 2 -8 8 0 5 -15 10 -33 10 -25 0 -39 7 -55 30 -12 16 -22
33 -22 38 0 14 -80 83 -131 113 -94 56 -210 83 -314 72z"/>
<path d="M4094 1932 c-62 -88 -89 -174 -73 -234 24 -92 139 -90 158 2 9 44
-23 268 -41 286 -2 2 -22 -22 -44 -54z"/>
<path d="M3265 1914 c-8 -21 -29 -80 -45 -133 -33 -104 -32 -147 2 -177 24
-23 93 -21 119 2 24 22 42 89 36 134 -5 41 -77 210 -89 210 -4 0 -15 -16 -23
-36z"/>
<path d="M2692 1833 c2 -5 -4 -28 -13 -53 -42 -120 -47 -139 -43 -188 3 -44 9
-56 36 -81 26 -23 39 -28 63 -24 17 3 35 12 41 19 21 26 2 176 -30 239 -9 17
-16 39 -16 51 0 11 -5 25 -12 32 -13 13 -29 16 -26 5z"/>
<path d="M3720 1728 c-54 -128 -57 -184 -14 -229 20 -21 37 -29 61 -29 65 0
76 81 35 255 -28 120 -33 120 -82 3z"/>
<path d="M2334 1573 c-39 -87 -39 -90 -47 -193 -3 -42 32 -112 59 -118 75 -17
117 17 110 88 -6 51 -15 90 -26 105 -4 6 -10 23 -14 40 -4 16 -13 36 -19 44
-6 7 -18 29 -27 48 l-15 34 -21 -48z"/>
<path d="M3017 1572 c-28 -31 -68 -162 -74 -243 -5 -74 -5 -76 22 -97 35 -28
88 -29 115 -2 52 52 53 128 3 262 -20 54 -39 98 -43 98 -4 0 -14 -8 -23 -18z"/>
<path d="M3464 1382 c-32 -21 -94 -196 -94 -266 0 -57 32 -90 90 -91 26 0 42
7 63 29 23 25 27 38 27 87 0 69 -16 147 -41 206 -19 44 -25 49 -45 35z"/>
<path d="M3892 1358 c-38 -48 -82 -187 -82 -260 0 -63 52 -109 96 -85 26 14
54 44 54 57 0 6 4 9 9 6 13 -9 2 146 -12 160 -4 4 -7 20 -7 36 0 34 -25 98
-38 98 -5 0 -14 -6 -20 -12z"/>
<path d="M2674 1242 c-32 -21 -94 -196 -94 -266 0 -32 17 -67 39 -81 16 -10
101 -14 98 -5 -1 3 8 16 21 30 17 19 22 35 22 81 0 69 -16 147 -41 206 -19 44
-25 49 -45 35z"/>
</g>
</svg>
